<svg width="24" height="24" viewBox="0 0 24 24" fill="none" xmlns="http://www.w3.org/2000/svg">
<path d="M22 15.3333V22H15.3333C14.1642 21.9988 13.016 21.6902 12.0039 21.1051C10.9917 20.5201 10.1512 19.6791 9.56667 18.6667C10.1949 18.6622 10.821 18.5929 11.435 18.46C11.9026 19.0447 12.4958 19.5167 13.1707 19.841C13.8455 20.1653 14.5846 20.3335 15.3333 20.3333H20.3333V15.3333C20.3331 14.5844 20.1643 13.845 19.8395 13.1702C19.5146 12.4954 19.042 11.9023 18.4567 11.435C18.5907 10.8211 18.6611 10.195 18.6667 9.56667C19.6791 10.1512 20.5201 10.9917 21.1051 12.0039C21.6902 13.016 21.9988 14.1642 22 15.3333ZM17 9.5C17 7.51088 16.2098 5.60322 14.8033 4.1967C13.3968 2.79018 11.4891 2 9.5 2C7.51088 2 5.60322 2.79018 4.1967 4.1967C2.79018 5.60322 2 7.51088 2 9.5L2 17H9.5C11.4884 16.9978 13.3948 16.2069 14.8009 14.8009C16.2069 13.3948 16.9978 11.4884 17 9.5ZM3.66667 9.5C3.66667 8.34628 4.00879 7.21846 4.64976 6.25917C5.29074 5.29989 6.20178 4.55221 7.26768 4.1107C8.33358 3.66919 9.50647 3.55367 10.638 3.77875C11.7696 4.00383 12.809 4.5594 13.6248 5.37521C14.4406 6.19102 14.9962 7.23042 15.2212 8.36197C15.4463 9.49353 15.3308 10.6664 14.8893 11.7323C14.4478 12.7982 13.7001 13.7093 12.7408 14.3502C11.7815 14.9912 10.6537 15.3333 9.5 15.3333H3.66667V9.5Z" fill="#BBB8AB"/>
</svg>
