<svg width="24" height="24" viewBox="0 0 24 24" fill="none" xmlns="http://www.w3.org/2000/svg">
<path d="M21.1333 21.1333H20.3333H15.3335C15.3335 21.1333 15.3334 21.1333 15.3333 21.1333C14.4647 21.1335 13.6071 20.9383 12.8242 20.562C12.1898 20.2572 11.6177 19.8399 11.1348 19.3318C11.1094 19.336 11.084 19.3401 11.0587 19.3441C11.4507 19.7626 11.9036 20.1231 12.4042 20.4125C13.2947 20.9272 14.3048 21.1988 15.3333 21.2C15.3336 21.2 15.3339 21.2 15.3342 21.2M21.1333 21.1333L15.3333 22L15.3342 21.2M21.1333 21.1333V20.3333V15.3333V15.3331C21.1331 14.4641 20.9373 13.6062 20.5603 12.8232C20.2551 12.1892 19.8375 11.6175 19.3292 11.135C19.3336 11.1089 19.3379 11.0828 19.342 11.0567M21.1333 21.1333L19.342 11.0567M15.3342 21.2L21.2 21.2M15.3342 21.2L21.2 21.2M21.2 21.2L21.2 15.3342L21.2 15.3333M21.2 21.2L19.4483 10.095C20.115 10.6181 20.6782 11.2653 21.1051 12.0039C21.6902 13.016 21.9988 14.1642 22 15.3333H21.2M21.2 15.3333C21.1988 14.3048 20.9272 13.2947 20.4125 12.4042C20.1226 11.9028 19.7614 11.4492 19.342 11.0567M21.2 15.3333L19.342 11.0567M16.2 9.49917C16.198 11.2757 15.4914 12.979 14.2352 14.2352C12.9789 15.4914 11.2757 16.198 9.49911 16.2H2.8V9.5C2.8 7.72305 3.50589 6.01888 4.76238 4.76238C6.01888 3.50589 7.72305 2.8 9.5 2.8C11.2769 2.8 12.9811 3.50589 14.2376 4.76238C15.4939 6.01867 16.1998 7.72248 16.2 9.49911V9.49917ZM2.86667 15.3333V16.1333H3.66667H9.5C10.8119 16.1333 12.0944 15.7443 13.1853 15.0154C14.2761 14.2865 15.1263 13.2506 15.6284 12.0385C16.1305 10.8264 16.2618 9.49264 16.0059 8.2059C15.7499 6.91916 15.1182 5.73721 14.1905 4.80952C13.2628 3.88184 12.0808 3.25007 10.7941 2.99412C9.50736 2.73818 8.17362 2.86954 6.96153 3.3716C5.74945 3.87366 4.71346 4.72387 3.98458 5.81472C3.2557 6.90556 2.86667 8.18805 2.86667 9.5V15.3333Z" fill="#3D3A29" stroke="#1B8D5A" stroke-width="1.6"/>
</svg>
