<svg width="24" height="24" viewBox="0 0 24 24" fill="none" xmlns="http://www.w3.org/2000/svg">
<path d="M12.8923 2.43314C12.5863 2.15429 12.1891 2 11.7773 2C11.3656 2 10.9684 2.15429 10.6623 2.43314L1.77734 10.5278V19.3007C1.77734 20.0166 2.0583 20.7032 2.55839 21.2094C3.05849 21.7156 3.73677 22 4.44401 22H19.1107C19.8179 22 20.4962 21.7156 20.9963 21.2094C21.4964 20.7032 21.7773 20.0166 21.7773 19.3007V10.5278L12.8923 2.43314ZM14.2773 20.3104H9.27734V16.0707C9.27734 15.3996 9.54074 14.7559 10.0096 14.2813C10.4784 13.8067 11.1143 13.5401 11.7773 13.5401C12.4404 13.5401 13.0763 13.8067 13.5451 14.2813C14.014 14.7559 14.2773 15.3996 14.2773 16.0707V20.3104ZM20.1107 19.2981C20.1107 19.5666 20.0053 19.8241 19.8178 20.0139C19.6302 20.2037 19.3759 20.3104 19.1107 20.3104H15.944V16.0707C15.944 14.9521 15.505 13.8793 14.7236 13.0883C13.9422 12.2974 12.8824 11.853 11.7773 11.853C10.6723 11.853 9.61247 12.2974 8.83107 13.0883C8.04966 13.8793 7.61068 14.9521 7.61068 16.0707V20.3104H4.44401C4.17879 20.3104 3.92444 20.2037 3.7369 20.0139C3.54937 19.8241 3.44401 19.5666 3.44401 19.2981V11.2785L11.7773 3.68665L20.1107 11.2785V19.2981Z" fill="#BBB8AB"/>
</svg>
