<svg width="24" height="24" viewBox="0 0 24 24" fill="none" xmlns="http://www.w3.org/2000/svg">
<path d="M16.8652 3C15.8804 3.01486 14.9169 3.2816 14.0723 3.77326C13.2276 4.26493 12.5317 4.96412 12.0547 5.80023C11.5777 4.96412 10.8817 4.26493 10.0371 3.77326C9.19244 3.2816 8.22902 3.01486 7.24413 3C5.67408 3.06618 4.19485 3.73252 3.1296 4.85344C2.06434 5.97436 1.49966 7.45875 1.55892 8.98231C1.55892 14.7313 11.1416 21.3712 11.5491 21.6529L12.0547 22L12.5602 21.6529C12.9678 21.3729 22.5505 14.7313 22.5505 8.98231C22.6097 7.45875 22.045 5.97436 20.9798 4.85344C19.9145 3.73252 18.4353 3.06618 16.8652 3ZM12.0547 19.9109C9.20946 17.8489 3.30822 12.783 3.30822 8.98231C3.24843 7.90865 3.62866 6.85561 4.36598 6.05285C5.10331 5.25009 6.1379 4.76275 7.24413 4.69711C8.35035 4.76275 9.38495 5.25009 10.1223 6.05285C10.8596 6.85561 11.2398 7.90865 11.18 8.98231H12.9293C12.8695 7.90865 13.2498 6.85561 13.9871 6.05285C14.7244 5.25009 15.759 4.76275 16.8652 4.69711C17.9715 4.76275 19.0061 5.25009 19.7434 6.05285C20.4807 6.85561 20.8609 7.90865 20.8012 8.98231C20.8012 12.7847 14.8999 17.8489 12.0547 19.9109Z" fill="#BBB8AB"/>
</svg>
