<svg width="24" height="24" viewBox="0 0 24 24" fill="none" xmlns="http://www.w3.org/2000/svg">
<path d="M12.3535 3.0245L12.3536 3.02452L20.9773 10.8812V19.3007C20.9773 19.8075 20.7783 20.2917 20.4272 20.6472C20.0763 21.0023 19.6026 21.2 19.1107 21.2H4.44401C3.95211 21.2 3.47835 21.0023 3.12751 20.6472C2.77635 20.2917 2.57734 19.8075 2.57734 19.3007V10.8812L11.2011 3.02452L11.2011 3.0245C11.2939 2.93995 11.4022 2.87783 11.5181 2.84064L11.2386 3.09527L2.90525 10.6872L2.64401 10.9252V11.2785V19.2981C2.64401 19.7756 2.83132 20.2355 3.16778 20.5761C3.50458 20.9171 3.96346 21.1104 4.44401 21.1104H7.61068H8.41068V20.3104V16.0707C8.41068 15.1612 8.76772 14.2908 9.40019 13.6506C10.0323 13.0107 10.8876 12.653 11.7773 12.653C12.6671 12.653 13.5224 13.0107 14.1545 13.6506C14.787 14.2908 15.144 15.1612 15.144 16.0707V20.3104V21.1104H15.944H19.1107C19.5912 21.1104 20.0501 20.9171 20.3869 20.5761C20.7234 20.2355 20.9107 19.7756 20.9107 19.2981V11.2785V10.9252L20.6494 10.6872L12.3161 3.09527L12.0366 2.84064C12.1525 2.87783 12.2608 2.93995 12.3535 3.0245ZM14.2773 21.1104H15.0773V20.3104V16.0707C15.0773 15.1905 14.732 14.3444 14.1142 13.7191C13.4961 13.0934 12.6557 12.7401 11.7773 12.7401C10.899 12.7401 10.0586 13.0934 9.44046 13.7191C8.82268 14.3444 8.47734 15.1905 8.47734 16.0707V20.3104V21.1104H9.27734H14.2773Z" fill="#3D3A29" stroke="#1B8D5A" stroke-width="1.6"/>
</svg>
