<svg width="24" height="24" viewBox="0 0 24 24" fill="none" xmlns="http://www.w3.org/2000/svg">
<path d="M17.5 5.25H20.875C21.1734 5.25 21.4595 5.36853 21.6705 5.57951C21.8815 5.79048 22 6.07663 22 6.375V18.75C22 19.3467 21.7629 19.919 21.341 20.341C20.919 20.7629 20.3467 21 19.75 21M19.75 21C19.1533 21 18.581 20.7629 18.159 20.341C17.7371 19.919 17.5 19.3467 17.5 18.75V4.125C17.5 3.82663 17.3815 3.54048 17.1705 3.32951C16.9595 3.11853 16.6734 3 16.375 3H5.125C4.82663 3 4.54048 3.11853 4.32951 3.32951C4.11853 3.54048 4 3.82663 4 4.125V17.625C4 18.5201 4.35558 19.3786 4.98851 20.0115C5.62145 20.6444 6.47989 21 7.375 21H19.75ZM8.5 7.5H13M8.5 12H13M8.5 16.5H13" stroke="#1B8D5A" stroke-width="1.6" stroke-linecap="round" stroke-linejoin="round"/>
</svg>
