<svg width="28" height="28" viewBox="0 0 28 28" fill="none" xmlns="http://www.w3.org/2000/svg">
<path d="M6.00024 25V6.33333C6.00024 5.69167 6.22872 5.14236 6.68566 4.68542C7.14261 4.22847 7.69191 4 8.33358 4H20.0002C20.6419 4 21.1912 4.22847 21.6482 4.68542C22.1051 5.14236 22.3336 5.69167 22.3336 6.33333V25L14.1669 21.5L6.00024 25ZM8.33358 21.4417L14.1669 18.9333L20.0002 21.4417V6.33333H8.33358V21.4417Z" fill="#1B8D5A"/>
<path d="M14.5 16L13.9925 15.5749C13.4033 15.079 12.9162 14.6512 12.5312 14.2916C12.1463 13.9319 11.84 13.609 11.6125 13.3229C11.385 13.0368 11.226 12.7738 11.1356 12.5341C11.0452 12.2943 11 12.049 11 11.7984C11 11.2861 11.1838 10.8583 11.5512 10.515C11.9187 10.1717 12.3767 10 12.925 10C13.2283 10 13.5171 10.0599 13.7912 10.1798C14.0654 10.2997 14.3017 10.4687 14.5 10.6866C14.6983 10.4687 14.9346 10.2997 15.2088 10.1798C15.4829 10.0599 15.7717 10 16.075 10C16.6233 10 17.0813 10.1717 17.4488 10.515C17.8162 10.8583 18 11.2861 18 11.7984C18 12.049 17.9548 12.2943 17.8644 12.5341C17.774 12.7738 17.615 13.0368 17.3875 13.3229C17.16 13.609 16.8538 13.9319 16.4688 14.2916C16.0838 14.6512 15.5967 15.079 15.0075 15.5749L14.5 16Z" fill="#1B8D5A"/>
</svg>
