<svg width="44" height="44" viewBox="0 0 44 44" fill="none" xmlns="http://www.w3.org/2000/svg">
<rect width="44" height="44" rx="16" fill="#1B8D5A"/>
<path d="M20.0001 24L31.0001 13M20.0001 24L23.5001 31C23.5439 31.0957 23.6144 31.1769 23.703 31.2338C23.7917 31.2906 23.8948 31.3209 24.0001 31.3209C24.1054 31.3209 24.2085 31.2906 24.2971 31.2338C24.3858 31.1769 24.4562 31.0957 24.5001 31L31.0001 13M20.0001 24L13.0001 20.5C12.9043 20.4561 12.8232 20.3857 12.7663 20.2971C12.7094 20.2084 12.6792 20.1053 12.6792 20C12.6792 19.8947 12.7094 19.7916 12.7663 19.7029C12.8232 19.6143 12.9043 19.5439 13.0001 19.5L31.0001 13" stroke="white" stroke-width="2" stroke-linecap="round" stroke-linejoin="round"/>
</svg>
