<svg width="44" height="44" viewBox="0 0 44 44" fill="none" xmlns="http://www.w3.org/2000/svg">
<rect x="0.75" y="0.75" width="42.5" height="42.5" rx="15.25" fill="#F4F3F1"/>
<rect x="0.75" y="0.75" width="42.5" height="42.5" rx="15.25" stroke="#D1D0C7" stroke-width="1.5"/>
<path fill-rule="evenodd" clip-rule="evenodd" d="M32.9949 10.2193C33.1267 10.3597 33.2007 10.5501 33.2007 10.7487C33.2007 10.9473 33.1267 11.1377 32.9949 11.2782L25.9396 18.7932C26.507 18.7984 27.0955 18.7902 27.7212 18.7812C28.2668 18.7737 28.8398 18.7662 29.4507 18.7662C31.1268 18.7662 32.2897 19.4672 33.0138 20.583C33.7064 21.6502 33.9454 23.0124 33.9911 24.2675C34.0382 25.5369 33.8906 26.7913 33.7352 27.7161C33.654 28.2025 33.5555 28.6853 33.4399 29.1637L33.435 29.1802V33.2152C33.435 33.4138 33.3609 33.6043 33.229 33.7447C33.0972 33.8851 32.9184 33.964 32.7319 33.964H29.6855C29.4991 33.964 29.3202 33.8851 29.1884 33.7447C29.0565 33.6043 28.9825 33.4138 28.9825 33.2152C28.9825 32.5809 29.0725 32.0941 29.2426 31.7039C29.417 31.3025 29.6504 31.0659 29.8212 30.9079L29.9239 30.812C28.716 30.0714 28.0066 29.4513 27.4477 28.6605C27.1496 28.2396 26.9077 27.7888 26.6575 27.2893C26.5592 27.0921 26.462 26.8944 26.3657 26.6961C26.2715 26.5029 26.173 26.3007 26.0655 26.0836L21.2488 27.7835V31.9226C21.2488 32.4004 21.1778 32.8961 20.8825 33.293C20.5774 33.7034 20.1422 33.8622 19.7365 33.9333C19.3358 34.003 18.8478 34.0052 18.31 33.9962L17.9753 33.9895L17.7644 33.985C17.2855 33.9722 16.8064 33.9652 16.3274 33.964C16.0391 33.964 15.734 33.8315 15.5484 33.5185C15.3944 33.2586 15.3874 32.9793 15.4014 32.8018C15.4303 32.4348 15.5842 32.0417 15.7642 31.7144C15.9625 31.3484 16.2176 31.0207 16.5186 30.7454C16.809 30.487 17.209 30.2384 17.6808 30.2211V30.2181C17.6853 30.0814 17.6811 29.9446 17.6681 29.8085C17.6455 29.5718 17.6183 29.3356 17.5865 29.1001C17.5148 28.5294 17.422 27.7963 17.3918 27.0047C16.7492 26.7111 16.2367 26.3831 15.8521 25.969C15.3599 25.4373 15.1336 24.8217 15.045 24.1245C14.9606 23.4655 14.9965 22.6919 15.0436 21.8269L15.0576 21.5738C15.0907 20.9627 15.1279 20.2782 15.1455 19.4972C14.3813 19.7023 13.5397 19.7353 12.8121 19.7353C11.3919 19.7353 10.7029 18.4532 10.3956 17.5733C10.2537 17.1561 10.1469 16.7263 10.0764 16.2889C10.0468 16.1087 10.0233 15.9273 10.0061 15.7453L10.0033 15.7093L10.0019 15.6988V15.6936C9.99045 15.5284 10.0307 15.3638 10.1165 15.2255C10.2022 15.0873 10.3286 14.9833 10.4758 14.9297L10.795 14.8129C11.4975 14.5566 12.1997 14.299 12.9013 14.0401C13.0188 13.6544 13.236 13.2889 13.4652 12.9909C13.8259 12.5213 14.3236 12.0735 14.8868 11.7927C15.4492 11.5133 16.1467 11.368 16.8343 11.6519C17.531 11.9394 18.0555 12.6 18.393 13.5675C18.9343 15.1214 19.5389 16.1863 20.2005 16.9277C20.8544 17.6601 21.5898 18.105 22.4433 18.3783C22.9646 18.5399 23.4993 18.6475 24.04 18.6996L32.0007 10.2193C32.1326 10.0789 32.3114 10 32.4978 10C32.6842 10 32.863 10.0789 32.9949 10.2193ZM22.0376 19.8124C22.2879 19.8918 22.5434 19.9592 22.804 20.0146L21.3093 21.6075H16.4638C16.5059 20.8264 16.5566 19.8903 16.5615 18.779C16.7274 18.6342 16.8767 18.4639 17.0093 18.2682C17.3341 17.7837 17.4994 17.1891 17.4994 16.4964H16.0932C16.0932 16.9277 15.9941 17.2056 15.8647 17.398C15.7326 17.5957 15.5287 17.7612 15.2341 17.8938C14.6168 18.1709 13.7506 18.2375 12.8121 18.2375C12.3579 18.2375 11.9916 17.8451 11.7132 17.0506C11.6126 16.7561 11.535 16.4532 11.4812 16.1452L12.0176 15.949C12.5959 15.7383 13.1733 15.5251 13.7499 15.3094C13.8869 15.2577 14.0055 15.162 14.0894 15.0356C14.1732 14.9091 14.2182 14.758 14.2182 14.6032C14.2182 14.5403 14.285 14.2887 14.5535 13.9382C14.801 13.6162 15.1378 13.3211 15.483 13.1489C15.8282 12.9766 16.1122 12.9594 16.3267 13.0478C16.5298 13.1317 16.8258 13.3758 17.0747 14.0887C17.6597 15.7662 18.3501 17.0273 19.1818 17.959C20.0205 18.8988 20.9746 19.4724 22.0376 19.8124ZM20.325 26.5314L20.8973 26.3292V23.1053H16.4005C16.3977 23.4198 16.4075 23.6871 16.4384 23.9238C16.4961 24.3769 16.6212 24.6667 16.8533 24.9176C17.1099 25.1946 17.5472 25.4777 18.3332 25.7937C18.4668 25.8474 18.5819 25.9432 18.6632 26.0683C18.7444 26.1934 18.788 26.3418 18.7881 26.494C18.7881 27.3776 18.8809 28.1025 18.9638 28.7563C19.0053 29.0761 19.044 29.3794 19.0686 29.6759C19.1002 30.0594 19.1206 30.5521 18.9435 30.9618C18.8386 31.2103 18.66 31.4153 18.4351 31.5452C18.2182 31.6634 17.9771 31.7225 17.7335 31.7174C17.7011 31.7174 17.5929 31.7406 17.4213 31.8941C17.2447 32.0583 17.095 32.2527 16.9784 32.4693L16.9777 32.4715C17.2795 32.476 17.5584 32.4815 17.8143 32.488L18.3325 32.4985C18.8823 32.5082 19.2507 32.5 19.5094 32.455C19.5899 32.4438 19.6687 32.4211 19.7435 32.3876C19.7544 32.3821 19.7647 32.3756 19.7745 32.3682L19.7759 32.3674L19.7808 32.3629C19.7808 32.3629 19.8427 32.2783 19.8427 31.9226V27.2428C19.8427 27.0854 19.8894 26.932 19.9759 26.8044C20.0625 26.6769 20.1847 26.5808 20.325 26.5314ZM24.575 20.2468L22.3034 22.6664V25.8342L26.1836 24.4637C26.3399 24.4086 26.5093 24.4137 26.6625 24.478C26.8156 24.5423 26.9427 24.6618 27.0216 24.8157C27.2515 25.2635 27.4519 25.6739 27.6277 26.0334C27.7252 26.2346 27.8154 26.4183 27.8984 26.5846C28.1395 27.0668 28.3413 27.4345 28.5705 27.7596C29.0134 28.3849 29.6117 28.9241 30.9623 29.7156C31.046 29.7648 31.1195 29.8317 31.1781 29.9122C31.2367 29.9927 31.2793 30.0851 31.3033 30.1837C31.4087 30.6158 31.4277 31.0329 31.2513 31.4178C31.117 31.7099 30.8807 31.9174 30.776 32.0095L30.7661 32.0177L30.7422 32.0394C30.6368 32.1368 30.5721 32.2094 30.5173 32.3337C30.499 32.3767 30.4835 32.421 30.4709 32.4663H32.0288V29.2431L29.7502 23.9635L31.0277 23.3382L32.4662 26.6707C32.5561 25.9518 32.6159 25.1355 32.5857 24.3267C32.5442 23.1899 32.3291 22.1617 31.8573 21.4353C31.4172 20.7575 30.705 20.264 29.4514 20.264C28.8848 20.264 28.3265 20.2715 27.7831 20.279C26.9605 20.2902 26.173 20.3007 25.4503 20.2835C25.1541 20.2765 24.8623 20.2648 24.575 20.2468Z" fill="#706D5C"/>
</svg>
