<svg width="44" height="44" viewBox="0 0 44 44" fill="none" xmlns="http://www.w3.org/2000/svg">
<rect x="0.5" y="0.5" width="43" height="43" rx="15.5" stroke="#D1D0C7"/>
<path d="M22 28L17.8 29.8C17.1333 30.0833 16.5 30.0293 15.9 29.638C15.3 29.2467 15 28.6923 15 27.975V15C15 14.45 15.196 13.9793 15.588 13.588C15.98 13.1967 16.4507 13.0007 17 13H27C27.55 13 28.021 13.196 28.413 13.588C28.805 13.98 29.0007 14.4507 29 15V27.975C29 28.6917 28.7 29.246 28.1 29.638C27.5 30.03 26.8667 30.084 26.2 29.8L22 28ZM22 25.8L27 27.95V15H17V27.95L22 25.8ZM22 15H17H27H22Z" fill="#D1D0C7"/>
</svg>
