<svg width="44" height="44" viewBox="0 0 44 44" fill="none" xmlns="http://www.w3.org/2000/svg">
<rect x="0.5" y="0.5" width="43" height="43" rx="15.5" stroke="#D1D0C7"/>
<path fill-rule="evenodd" clip-rule="evenodd" d="M18.25 14.75C17.6533 14.75 17.081 14.9753 16.659 15.3764C16.2371 15.7775 16 16.3214 16 16.8887V27.6803C15.9999 27.8676 16.0516 28.0517 16.1499 28.214C16.2482 28.3764 16.3897 28.5113 16.5601 28.6054C16.7305 28.6995 16.9239 28.7493 17.121 28.75C17.3181 28.7507 17.5119 28.7021 17.683 28.6092L21.628 26.4663C21.7413 26.4047 21.8695 26.3724 22 26.3724C22.1305 26.3724 22.2587 26.4047 22.372 26.4663L26.317 28.6092C26.4881 28.7021 26.6819 28.7507 26.879 28.75C27.0761 28.7493 27.2695 28.6995 27.4399 28.6054C27.6103 28.5113 27.7518 28.3764 27.8501 28.214C27.9484 28.0517 28.0001 27.8676 28 27.6803V16.8887C28 16.3214 27.7629 15.7775 27.341 15.3764C26.919 14.9753 26.3467 14.75 25.75 14.75H18.25Z" fill="#FFB200"/>
</svg>
