<svg width="201" height="126" viewBox="0 0 201 126" fill="none" xmlns="http://www.w3.org/2000/svg">
<g clip-path="url(#clip0_129_7724)">
<path d="M166.661 44.066C167.085 41.8073 167.307 39.4767 167.307 37.0935C167.307 16.6073 150.921 0 130.708 0C118.34 0 107.406 6.21729 100.781 15.7365C94.4207 10.3247 86.2175 7.06543 77.2633 7.06543C57.2443 7.06543 40.9796 23.3553 40.6693 43.5697H40.6648C18.2061 43.5697 0 62.0222 0 84.7849C0 107.548 18.2061 126 40.6648 126H160.336C182.794 126 201 107.548 201 84.7849C201 64.2028 186.115 47.1456 166.661 44.066Z" fill="#FFFBDE"/>
<g clip-path="url(#clip1_129_7724)">
<path d="M82.166 74.4572C82.166 73.2937 82.6282 72.3463 83.5524 71.6149C84.511 70.8836 85.8118 70.5179 87.455 70.5179C89.1324 70.5179 90.4675 70.5013 91.4603 70.4681C92.4873 70.4016 93.3431 70.2852 94.0277 70.119C94.7124 69.9528 95.3628 69.6702 95.979 69.2713L87.455 69.2713C86.1884 69.2713 85.1614 68.9721 84.374 68.3737C83.6209 67.7754 83.2444 66.8279 83.2444 65.5314C83.2444 64.2349 83.6209 63.2709 84.374 62.6393C85.1614 62.0077 86.1884 61.6918 87.455 61.6918L95.4655 61.6918C95.5682 60.6281 96.0304 59.8302 96.852 59.2983C97.7078 58.7664 98.8717 58.5005 100.344 58.5005C101.747 58.5005 102.86 58.7664 103.681 59.2983C104.503 59.8302 104.965 60.6281 105.068 61.6918L111.897 61.6918C113.164 61.6918 114.174 62.0077 114.927 62.6393C115.714 63.2709 116.108 64.2349 116.108 65.5314C116.108 66.8279 115.714 67.7754 114.927 68.3737C114.174 68.9721 113.164 69.2713 111.897 69.2713L105.273 69.2713L103.733 71.5651L104.965 72.3629C107.088 71.0664 109.313 70.4182 111.641 70.4182C113.147 70.4182 114.396 70.7839 115.389 71.5152C116.382 72.2466 116.861 73.2937 116.827 74.6567C116.793 75.9864 116.262 76.9505 115.235 77.5489C114.242 78.1472 113.01 78.3467 111.538 78.1472C110.066 77.9145 108.611 77.2995 107.173 76.3022C106.044 75.4712 105.051 74.8728 104.195 74.5071C103.373 74.1082 102.363 73.9087 101.165 73.9087C100.173 73.9087 99.2825 74.0749 98.4951 74.4074C97.742 74.7066 96.9718 75.0889 96.1844 75.5543C95.4313 75.9864 94.5412 76.4352 93.5142 76.9006C92.5215 77.3328 91.2891 77.6985 89.8171 77.9977C88.7216 78.1971 87.5748 78.2802 86.3767 78.247C85.1785 78.1805 84.1686 77.8647 83.3471 77.2995C82.5597 76.7344 82.166 75.787 82.166 74.4572Z" fill="#397326"/>
<path d="M125.495 74.7617C125.495 73.5982 125.957 72.6507 126.882 71.9194C127.84 71.188 129.141 70.8224 130.784 70.8224C132.462 70.8224 133.797 70.8057 134.789 70.7725C135.816 70.706 136.672 70.5897 137.357 70.4234C138.041 70.2572 138.692 69.9747 139.308 69.5757L130.784 69.5757C129.517 69.5757 128.491 69.2766 127.703 68.6782C126.95 68.0798 126.573 67.1324 126.573 65.8359C126.573 64.5394 126.95 63.5753 127.703 62.9437C128.491 62.3121 129.517 61.9963 130.784 61.9963L138.795 61.9963C138.897 60.9325 139.359 60.1347 140.181 59.6028C141.037 59.0709 142.201 58.8049 143.673 58.8049C145.076 58.8049 146.189 59.0709 147.011 59.6028C147.832 60.1347 148.294 60.9325 148.397 61.9963L155.226 61.9963C156.493 61.9963 157.503 62.3121 158.256 62.9437C159.043 63.5753 159.437 64.5394 159.437 65.8359C159.437 67.1324 159.043 68.0798 158.256 68.6782C157.503 69.2766 156.493 69.5757 155.226 69.5757L148.602 69.5757L147.062 71.8695L148.294 72.6674C150.417 71.3709 152.642 70.7226 154.97 70.7226C156.476 70.7226 157.725 71.0883 158.718 71.8197C159.711 72.551 160.19 73.5982 160.156 74.9611C160.122 76.2909 159.591 77.2549 158.564 77.8533C157.571 78.4517 156.339 78.6511 154.867 78.4517C153.395 78.219 151.94 77.604 150.502 76.6067C149.373 75.7756 148.38 75.1772 147.524 74.8116C146.702 74.4126 145.693 74.2132 144.494 74.2132C143.502 74.2132 142.612 74.3794 141.824 74.7118C141.071 75.011 140.301 75.3933 139.514 75.8587C138.76 76.2909 137.87 76.7397 136.843 77.2051C135.851 77.6372 134.618 78.0029 133.146 78.3021C132.051 78.5016 130.904 78.5847 129.706 78.5514C128.508 78.4849 127.498 78.1691 126.676 77.604C125.889 77.0389 125.495 76.0914 125.495 74.7617Z" fill="#397326"/>
<path d="M82.7242 87.6682C81.5945 87.6682 80.6188 87.3192 79.7972 86.6211C79.0099 85.923 78.6162 84.9257 78.6162 83.6292C78.6162 82.3327 79.0441 81.3354 79.8999 80.6373C80.7558 79.9392 81.8855 79.5901 83.289 79.5901L94.894 79.5901L94.894 79.1912C94.894 78.0277 95.339 77.0969 96.2291 76.3988C97.1191 75.6674 98.3173 75.3018 99.8235 75.3018C101.432 75.3018 102.631 75.6508 103.418 76.3489C104.205 77.0138 104.599 77.9446 104.599 79.1414L104.548 79.5901L116.769 79.5901C117.899 79.5901 118.823 79.9558 119.542 80.6872C120.295 81.3853 120.671 82.3659 120.671 83.6292C120.671 84.8259 120.295 85.8066 119.542 86.5712C118.823 87.3026 117.899 87.6682 116.769 87.6682L82.7242 87.6682Z" fill="#4D9933"/>
<path d="M126.052 87.9734C124.923 87.9734 123.947 87.6244 123.125 86.9263C122.338 86.2281 121.944 85.2308 121.944 83.9344C121.944 82.6379 122.372 81.6406 123.228 80.9425C124.084 80.2444 125.214 79.8953 126.617 79.8953L138.222 79.8953L138.222 79.4964C138.222 78.3329 138.667 77.4021 139.557 76.704C140.447 75.9726 141.645 75.6069 143.152 75.6069C144.761 75.6069 145.959 75.956 146.746 76.6541C147.533 77.319 147.927 78.2498 147.927 79.4465L147.876 79.8953L160.097 79.8953C161.227 79.8953 162.151 80.261 162.87 80.9923C163.623 81.6904 164 82.6711 164 83.9344C164 85.1311 163.623 86.1118 162.87 86.8764C162.151 87.6077 161.227 87.9734 160.097 87.9734L126.052 87.9734Z" fill="#4D9933"/>
<path d="M82.8789 92.6214C82.8789 91.2917 83.2555 90.2778 84.0086 89.5797C84.796 88.8483 86.0112 88.4827 87.6544 88.4827L109.889 88.4827C112.114 88.4827 113.723 88.8982 114.716 89.7293C115.708 90.5271 116.205 91.9067 116.205 93.8681C116.205 94.7324 116.188 95.4305 116.153 95.9624C116.119 96.461 116.051 97.0262 115.948 97.6578C115.708 99.3864 115.178 100.567 114.356 101.198C113.535 101.863 112.353 102.196 110.813 102.196C109.649 102.196 108.605 101.913 107.681 101.348C106.791 100.783 106.294 99.9848 106.192 98.9543L106.14 98.5055C106.106 97.9404 105.969 97.5414 105.729 97.3087C105.49 97.076 105.028 96.9597 104.343 96.9597L87.6544 96.9597C86.0112 96.9597 84.796 96.5774 84.0086 95.8128C83.2555 95.015 82.8789 93.9512 82.8789 92.6214Z" fill="#4D9933"/>
<path d="M126.207 92.9259C126.207 91.5962 126.584 90.5822 127.337 89.8841C128.124 89.1528 129.339 88.7871 130.983 88.7871L153.217 88.7871C155.442 88.7871 157.051 89.2027 158.044 90.0337C159.036 90.8316 159.533 92.2112 159.533 94.1725C159.533 95.0368 159.516 95.7349 159.481 96.2668C159.447 96.7655 159.379 97.3306 159.276 97.9622C159.036 99.6909 158.506 100.871 157.684 101.503C156.863 102.168 155.682 102.5 154.141 102.5C152.977 102.5 151.933 102.217 151.009 101.652C150.119 101.087 149.622 100.289 149.52 99.2587L149.468 98.8099C149.434 98.2448 149.297 97.8459 149.058 97.6132C148.818 97.3805 148.356 97.2641 147.671 97.2641L130.983 97.2641C129.339 97.2641 128.124 96.8818 127.337 96.1172C126.584 95.3194 126.207 94.2556 126.207 92.9259Z" fill="#4D9933"/>
<path d="M36 94.0554C36 92.5927 36.4793 91.4292 37.4378 90.5649C38.3963 89.6673 39.5431 89.2185 40.8782 89.2185L49.8644 89.2185C49.659 88.6201 49.5563 87.9386 49.5563 87.1741C49.5563 85.8111 50.0697 84.6642 51.0967 83.7334C52.1237 82.8026 53.5615 82.3372 55.4101 82.3372C57.2244 82.3372 58.6109 82.8026 59.5694 83.7334C60.5279 84.6642 61.0072 85.8111 61.0072 87.1741C61.0072 87.573 60.9901 87.9386 60.9558 88.2711C60.9216 88.6035 60.8531 88.9193 60.7504 89.2185L73.3824 89.2185C74.7175 89.2185 75.8301 89.6839 76.7201 90.6147C77.6102 91.5123 78.0552 92.6592 78.0552 94.0554C78.0552 95.4849 77.6102 96.665 76.7201 97.5958C75.8301 98.5266 74.7175 98.992 73.3824 98.992L40.7755 98.992C39.5089 98.992 38.3963 98.5599 37.4378 97.6955C36.4793 96.798 36 95.5846 36 94.0554Z" fill="#877C61"/>
<path d="M66.5596 87.335C65.3272 87.0025 64.4029 86.4374 63.7867 85.6395C63.2048 84.8417 62.9309 83.9608 62.9651 82.9967C62.9994 81.9994 63.3075 81.0686 63.8894 80.2043L45.0955 80.2043C43.8289 80.2043 42.8875 79.9051 42.2713 79.3067C41.6551 78.6751 41.347 77.8606 41.347 76.8633C41.347 75.866 41.638 75.0848 42.22 74.5197C42.8362 73.9213 43.7776 73.6221 45.0442 73.6221L69.2298 73.6221C69.2298 72.6248 68.973 72.0264 68.4595 71.827C67.9803 71.5943 67.2785 71.4779 66.3542 71.4779L44.7874 71.4779C42.9389 71.4779 41.6038 71.0291 40.7822 70.1316C39.9606 69.2008 39.5498 68.1037 39.5498 66.8405C39.5498 65.544 39.9606 64.4636 40.7822 63.5993C41.638 62.7017 42.9731 62.2529 44.7874 62.2529L65.7894 62.2529C68.3226 62.2529 70.2739 62.8846 71.6432 64.1478C73.0468 65.411 73.8512 67.04 74.0566 69.0346C74.1593 70.0651 74.2107 71.3117 74.2107 72.7744C74.2449 74.2039 74.1936 75.7164 74.0566 77.3121C73.9539 78.8745 73.7657 80.3871 73.4918 81.8498C73.1152 83.8444 72.345 85.3736 71.1811 86.4374C70.0171 87.5012 68.4767 87.8004 66.5596 87.335Z" fill="#877C61"/>
</g>
</g>
<defs>
<clipPath id="clip0_129_7724">
<rect width="201" height="126" fill="white"/>
</clipPath>
<clipPath id="clip1_129_7724">
<rect width="128" height="44.0001" fill="white" transform="translate(36 58.5)"/>
</clipPath>
</defs>
</svg>
