<svg width="64" height="22" viewBox="0 0 64 22" fill="none" xmlns="http://www.w3.org/2000/svg">
<g clip-path="url(#clip0_129_7637)">
<path d="M23.083 7.97838C23.083 7.39662 23.3141 6.92291 23.7762 6.55723C24.2555 6.19155 24.9059 6.00872 25.7275 6.00872C26.5662 6.00872 27.2338 6.00041 27.7301 5.98378C28.2436 5.95054 28.6715 5.89237 29.0139 5.80926C29.3562 5.72615 29.6814 5.58487 29.9895 5.38541L25.7275 5.38541C25.0942 5.38541 24.5807 5.23581 24.187 4.93662C23.8105 4.63743 23.6222 4.16372 23.6222 3.51547C23.6222 2.86723 23.8105 2.3852 24.187 2.06939C24.5807 1.75358 25.0942 1.59568 25.7275 1.59568L29.7328 1.59568C29.7841 1.06378 30.0152 0.664865 30.426 0.39892C30.8539 0.132973 31.4359 2.87982e-09 32.1719 3.13358e-09C32.8736 3.37553e-09 33.4299 0.132973 33.8407 0.39892C34.2515 0.664865 34.4826 1.06378 34.5339 1.59568L37.9487 1.59568C38.582 1.59568 39.0869 1.75358 39.4635 2.06939C39.8572 2.3852 40.054 2.86723 40.054 3.51547C40.054 4.16372 39.8572 4.63743 39.4635 4.93662C39.0869 5.23581 38.582 5.38541 37.9487 5.38541L34.6366 5.38541L33.8664 6.5323L34.4826 6.93122C35.5438 6.28297 36.6564 5.95885 37.8203 5.95885C38.5734 5.95885 39.1982 6.14169 39.6946 6.50737C40.1909 6.87304 40.4306 7.39662 40.4134 8.07811C40.3963 8.74297 40.131 9.225 39.6175 9.52419C39.1212 9.82338 38.505 9.92311 37.7689 9.82338C37.0329 9.70703 36.3055 9.39953 35.5866 8.90088C35.0218 8.48534 34.5254 8.18615 34.0975 8.00331C33.6867 7.80385 33.1817 7.70412 32.5827 7.70412C32.0863 7.70412 31.6412 7.78723 31.2476 7.95345C30.871 8.10304 30.4859 8.29419 30.0922 8.52689C29.7156 8.74297 29.2706 8.96737 28.7571 9.20007C28.2607 9.41615 27.6445 9.59899 26.9085 9.74858C26.3608 9.84831 25.7874 9.88987 25.1883 9.87324C24.5893 9.84 24.0843 9.68209 23.6735 9.39953C23.2798 9.11696 23.083 8.64324 23.083 7.97838Z" fill="#397326"/>
<path d="M44.7476 8.13072C44.7476 7.54897 44.9786 7.07525 45.4408 6.70957C45.92 6.3439 46.5705 6.16106 47.3921 6.16106C48.2308 6.16106 48.8983 6.15275 49.3947 6.13613C49.9082 6.10288 50.3361 6.04471 50.6784 5.9616C51.0207 5.87849 51.346 5.73721 51.6541 5.53775L47.3921 5.53775C46.7587 5.53775 46.2453 5.38816 45.8516 5.08897C45.475 4.78978 45.2867 4.31606 45.2867 3.66782C45.2867 3.01957 45.475 2.53755 45.8516 2.22174C46.2453 1.90593 46.7587 1.74802 47.3921 1.74802L51.3973 1.74802C51.4487 1.21613 51.6797 0.817209 52.0905 0.551263C52.5184 0.285317 53.1004 0.152344 53.8364 0.152344C54.5382 0.152344 55.0945 0.285317 55.5053 0.551263C55.9161 0.817209 56.1471 1.21613 56.1985 1.74802L59.6132 1.74802C60.2465 1.74802 60.7515 1.90593 61.128 2.22174C61.5217 2.53755 61.7185 3.01957 61.7185 3.66782C61.7185 4.31606 61.5217 4.78978 61.128 5.08897C60.7515 5.38816 60.2465 5.53775 59.6132 5.53775L56.3012 5.53775L55.5309 6.68464L56.1471 7.08356C57.2084 6.43532 58.3209 6.11119 59.4848 6.11119C60.238 6.11119 60.8627 6.29403 61.3591 6.65971C61.8555 7.02539 62.0951 7.54897 62.078 8.23045C62.0609 8.89532 61.7956 9.37735 61.2821 9.67653C60.7857 9.97572 60.1695 10.0755 59.4335 9.97572C58.6975 9.85937 57.97 9.55187 57.2511 9.05322C56.6863 8.63768 56.1899 8.33849 55.762 8.15565C55.3512 7.9562 54.8463 7.85647 54.2472 7.85647C53.7508 7.85647 53.3058 7.93957 52.9121 8.10579C52.5356 8.25538 52.1504 8.44653 51.7568 8.67924C51.3802 8.89532 50.9352 9.11971 50.4217 9.35241C49.9253 9.56849 49.3091 9.75133 48.5731 9.90093C48.0254 10.0007 47.452 10.0422 46.8529 10.0256C46.2538 9.99234 45.7489 9.83444 45.3381 9.55187C44.9444 9.2693 44.7476 8.79559 44.7476 8.13072Z" fill="#397326"/>
<path d="M23.3621 14.5844C22.7972 14.5844 22.3094 14.4098 21.8986 14.0608C21.5049 13.7117 21.3081 13.2131 21.3081 12.5648C21.3081 11.9166 21.5221 11.4179 21.95 11.0689C22.3779 10.7198 22.9427 10.5453 23.6445 10.5453L29.447 10.5453L29.447 10.3459C29.447 9.7641 29.6695 9.29869 30.1145 8.94964C30.5596 8.58396 31.1586 8.40112 31.9118 8.40112C32.7162 8.40112 33.3153 8.57565 33.709 8.9247C34.1027 9.25714 34.2995 9.72254 34.2995 10.3209L34.2738 10.5453L40.3844 10.5453C40.9493 10.5453 41.4114 10.7281 41.7709 11.0938C42.1474 11.4429 42.3357 11.9332 42.3357 12.5648C42.3357 13.1632 42.1474 13.6536 41.7709 14.0359C41.4114 14.4015 40.9493 14.5844 40.3844 14.5844L23.3621 14.5844Z" fill="#4D9933"/>
<path d="M45.0261 14.7365C44.4613 14.7365 43.9735 14.5619 43.5627 14.2129C43.169 13.8638 42.9722 13.3652 42.9722 12.7169C42.9722 12.0687 43.1861 11.57 43.614 11.221C44.0419 10.8719 44.6068 10.6974 45.3086 10.6974L51.1111 10.6974L51.1111 10.498C51.1111 9.91619 51.3336 9.45079 51.7786 9.10174C52.2236 8.73606 52.8227 8.55322 53.5758 8.55322C54.3803 8.55322 54.9794 8.72775 55.3731 9.0768C55.7667 9.40924 55.9636 9.87464 55.9636 10.473L55.9379 10.6974L62.0485 10.6974C62.6133 10.6974 63.0755 10.8802 63.4349 11.2459C63.8115 11.595 63.9998 12.0853 63.9998 12.7169C63.9998 13.3153 63.8115 13.8057 63.4349 14.188C63.0755 14.5536 62.6133 14.7365 62.0485 14.7365L45.0261 14.7365Z" fill="#4D9933"/>
<path d="M23.4395 17.0606C23.4395 16.3957 23.6277 15.8888 24.0043 15.5397C24.398 15.174 25.0056 14.9912 25.8272 14.9912L36.9444 14.9912C38.0569 14.9912 38.8614 15.199 39.3578 15.6145C39.8542 16.0134 40.1024 16.7032 40.1024 17.6839C40.1024 18.1161 40.0938 18.4651 40.0767 18.7311C40.0596 18.9804 40.0253 19.263 39.974 19.5788C39.8542 20.4431 39.5889 21.0332 39.1781 21.349C38.7673 21.6814 38.1767 21.8476 37.4065 21.8476C36.8245 21.8476 36.3025 21.7063 35.8403 21.4238C35.3953 21.1412 35.1471 20.7423 35.0958 20.227L35.0701 20.0026C35.053 19.7201 34.9845 19.5206 34.8647 19.4043C34.7449 19.2879 34.5138 19.2297 34.1715 19.2297L25.8272 19.2297C25.0056 19.2297 24.398 19.0386 24.0043 18.6563C23.6277 18.2574 23.4395 17.7255 23.4395 17.0606Z" fill="#72C655"/>
<path d="M45.1035 17.2129C45.1035 16.5481 45.2918 16.0411 45.6684 15.6921C46.062 15.3264 46.6697 15.1436 47.4913 15.1436L58.6084 15.1436C59.721 15.1436 60.5255 15.3513 61.0218 15.7669C61.5182 16.1658 61.7664 16.8556 61.7664 17.8363C61.7664 18.2684 61.7579 18.6175 61.7407 18.8834C61.7236 19.1327 61.6894 19.4153 61.638 19.7311C61.5182 20.5954 61.2529 21.1855 60.8421 21.5013C60.4313 21.8338 59.8408 22 59.0706 22C58.4886 22 57.9666 21.8587 57.5044 21.5761C57.0594 21.2936 56.8112 20.8946 56.7598 20.3794L56.7342 20.155C56.7171 19.8724 56.6486 19.6729 56.5288 19.5566C56.409 19.4402 56.1779 19.3821 55.8356 19.3821L47.4913 19.3821C46.6697 19.3821 46.062 19.1909 45.6684 18.8086C45.2918 18.4097 45.1035 17.8778 45.1035 17.2129Z" fill="#72C655"/>
<path d="M2.17015e-09 17.7776C1.89927e-09 17.0462 0.239631 16.4645 0.718892 16.0323C1.19815 15.5835 1.77156 15.3591 2.4391 15.3591L6.93218 15.3591C6.82948 15.0599 6.77813 14.7192 6.77813 14.3369C6.77813 13.6554 7.03487 13.082 7.54837 12.6166C8.06186 12.1512 8.78076 11.9185 9.70504 11.9185C10.6122 11.9185 11.3054 12.1512 11.7847 12.6166C12.264 13.082 12.5036 13.6554 12.5036 14.3369C12.5036 14.5364 12.495 14.7192 12.4779 14.8854C12.4608 15.0516 12.4266 15.2095 12.3752 15.3591L18.6912 15.3591C19.3587 15.3591 19.915 15.5918 20.3601 16.0572C20.8051 16.506 21.0276 17.0795 21.0276 17.7776C21.0276 18.4923 20.8051 19.0824 20.3601 19.5478C19.915 20.0132 19.3587 20.2459 18.6912 20.2459L2.38775 20.2459C1.75444 20.2459 1.19815 20.0298 0.718892 19.5976C0.239631 19.1489 2.45335e-09 18.5422 2.17015e-09 17.7776Z" fill="#877C61"/>
<path d="M15.2798 14.4175C14.6636 14.2513 14.2015 13.9687 13.8934 13.5698C13.6024 13.1709 13.4655 12.7304 13.4826 12.2484C13.4997 11.7497 13.6537 11.2843 13.9447 10.8521L4.54777 10.8521C3.91446 10.8521 3.44376 10.7025 3.13566 10.4034C2.82757 10.0875 2.67352 9.68032 2.67352 9.18167C2.67352 8.68302 2.81901 8.29241 3.10999 8.00984C3.41808 7.71065 3.88879 7.56106 4.5221 7.56106L16.6149 7.56106C16.6149 7.06241 16.4865 6.76322 16.2298 6.66349C15.9901 6.54714 15.6393 6.48896 15.1771 6.48896L4.39372 6.48896C3.46943 6.48896 2.80189 6.26457 2.3911 5.81579C1.9803 5.35038 1.7749 4.80187 1.7749 4.17025C1.7749 3.522 1.9803 2.9818 2.3911 2.54964C2.81901 2.10086 3.48655 1.87646 4.39372 1.87646L14.8947 1.87646C16.1613 1.87646 17.1369 2.19228 17.8216 2.8239C18.5234 3.45552 18.9256 4.26998 19.0283 5.26728C19.0797 5.78255 19.1053 6.40586 19.1053 7.13721C19.1225 7.85194 19.0968 8.60822 19.0283 9.40606C18.977 10.1873 18.8828 10.9436 18.7459 11.6749C18.5576 12.6722 18.1725 13.4368 17.5905 13.9687C17.0086 14.5006 16.2383 14.6502 15.2798 14.4175Z" fill="#877C61"/>
</g>
<defs>
<clipPath id="clip0_129_7637">
<rect width="64" height="22" fill="white"/>
</clipPath>
</defs>
</svg>
