<svg width="56" height="56" viewBox="0 0 56 56" fill="none" xmlns="http://www.w3.org/2000/svg">
<rect x="0.5" y="0.5" width="55" height="55" rx="11.5" stroke="#BBB8AB"/>
<path fill-rule="evenodd" clip-rule="evenodd" d="M29.9215 19.7326C30.726 19.2668 31.6435 19.0141 32.5815 19C34.0768 19.0627 35.4856 19.694 36.5001 20.7559C37.5146 21.8178 38.0524 23.2241 37.996 24.6675C37.996 30.1138 28.8696 36.4059 28.4815 36.6712L28 37L27.5185 36.6712C27.1304 36.4043 18.004 30.1138 18.004 24.6675C17.9476 23.2241 18.4854 21.8178 19.4999 20.7559C20.5144 19.694 21.9232 19.0627 23.4185 19C24.3565 19.0141 25.2741 19.2668 26.0785 19.7326C26.8829 20.1984 27.5457 20.8607 28 21.6529C28.4543 20.8607 29.1171 20.1984 29.9215 19.7326Z" fill="#FFB200"/>
</svg>
