<svg width="56" height="56" viewBox="0 0 56 56" fill="none" xmlns="http://www.w3.org/2000/svg">
<rect x="0.5" y="0.5" width="55" height="55" rx="11.5" stroke="#BBB8AB"/>
<path d="M32.8652 19C31.8804 19.0149 30.9169 19.2816 30.0723 19.7733C29.2276 20.2649 28.5317 20.9641 28.0547 21.8002C27.5777 20.9641 26.8817 20.2649 26.0371 19.7733C25.1924 19.2816 24.229 19.0149 23.2441 19C21.6741 19.0662 20.1949 19.7325 19.1296 20.8534C18.0643 21.9744 17.4997 23.4588 17.5589 24.9823C17.5589 30.7313 27.1416 37.3712 27.5491 37.6529L28.0547 38L28.5602 37.6529C28.9678 37.3729 38.5505 30.7313 38.5505 24.9823C38.6097 23.4588 38.045 21.9744 36.9798 20.8534C35.9145 19.7325 34.4353 19.0662 32.8652 19ZM28.0547 35.9109C25.2095 33.8489 19.3082 28.783 19.3082 24.9823C19.2484 23.9087 19.6287 22.8556 20.366 22.0528C21.1033 21.2501 22.1379 20.7627 23.2441 20.6971C24.3504 20.7627 25.3849 21.2501 26.1223 22.0528C26.8596 22.8556 27.2398 23.9087 27.18 24.9823H28.9293C28.8695 23.9087 29.2498 22.8556 29.9871 22.0528C30.7244 21.2501 31.759 20.7627 32.8652 20.6971C33.9715 20.7627 35.0061 21.2501 35.7434 22.0528C36.4807 22.8556 36.8609 23.9087 36.8012 24.9823C36.8012 28.7847 30.8999 33.8489 28.0547 35.9109Z" fill="#BBB8AB"/>
</svg>
