<svg width="33" height="32" viewBox="0 0 33 32" fill="none" xmlns="http://www.w3.org/2000/svg">
<rect x="0.5" width="32" height="32" rx="16" fill="#F4F3F1"/>
<path d="M16.5 20.8889C17.625 20.8889 18.5812 20.5 19.3687 19.7222C20.1562 18.9444 20.55 18 20.55 16.8889C20.55 15.7778 20.1562 14.8333 19.3687 14.0556C18.5812 13.2778 17.625 12.8889 16.5 12.8889C15.375 12.8889 14.4187 13.2778 13.6312 14.0556C12.8438 14.8333 12.45 15.7778 12.45 16.8889C12.45 18 12.8438 18.9444 13.6312 19.7222C14.4187 20.5 15.375 20.8889 16.5 20.8889ZM16.5 19.1111C15.87 19.1111 15.3375 18.8963 14.9025 18.4667C14.4675 18.037 14.25 17.5111 14.25 16.8889C14.25 16.2667 14.4675 15.7407 14.9025 15.3111C15.3375 14.8815 15.87 14.6667 16.5 14.6667C17.13 14.6667 17.6625 14.8815 18.0975 15.3111C18.5325 15.7407 18.75 16.2667 18.75 16.8889C18.75 17.5111 18.5325 18.037 18.0975 18.4667C17.6625 18.8963 17.13 19.1111 16.5 19.1111ZM9.3 24C8.805 24 8.38125 23.8259 8.02875 23.4778C7.67625 23.1296 7.5 22.7111 7.5 22.2222V11.5556C7.5 11.0667 7.67625 10.6481 8.02875 10.3C8.38125 9.95185 8.805 9.77778 9.3 9.77778H12.135L13.8 8H19.2L20.865 9.77778H23.7C24.195 9.77778 24.6187 9.95185 24.9713 10.3C25.3238 10.6481 25.5 11.0667 25.5 11.5556V22.2222C25.5 22.7111 25.3238 23.1296 24.9713 23.4778C24.6187 23.8259 24.195 24 23.7 24H9.3Z" fill="#706D5C"/>
</svg>
