<svg width="101" height="100" viewBox="0 0 101 100" fill="none" xmlns="http://www.w3.org/2000/svg">
<path d="M19.75 75.5C24 72.25 28.75 69.6875 34 67.8125C39.25 65.9375 44.75 65 50.5 65C56.25 65 61.75 65.9375 67 67.8125C72.25 69.6875 77 72.25 81.25 75.5C84.1667 72.0833 86.4375 68.2083 88.0625 63.875C89.6875 59.5417 90.5 54.9167 90.5 50C90.5 38.9167 86.6042 29.4792 78.8125 21.6875C71.0208 13.8958 61.5833 10 50.5 10C39.4167 10 29.9792 13.8958 22.1875 21.6875C14.3958 29.4792 10.5 38.9167 10.5 50C10.5 54.9167 11.3125 59.5417 12.9375 63.875C14.5625 68.2083 16.8333 72.0833 19.75 75.5ZM50.5 55C45.5833 55 41.4375 53.3125 38.0625 49.9375C34.6875 46.5625 33 42.4167 33 37.5C33 32.5833 34.6875 28.4375 38.0625 25.0625C41.4375 21.6875 45.5833 20 50.5 20C55.4167 20 59.5625 21.6875 62.9375 25.0625C66.3125 28.4375 68 32.5833 68 37.5C68 42.4167 66.3125 46.5625 62.9375 49.9375C59.5625 53.3125 55.4167 55 50.5 55ZM50.5 100C43.5833 100 37.0833 98.6875 31 96.0625C24.9167 93.4375 19.625 89.875 15.125 85.375C10.625 80.875 7.0625 75.5833 4.4375 69.5C1.8125 63.4167 0.5 56.9167 0.5 50C0.5 43.0833 1.8125 36.5833 4.4375 30.5C7.0625 24.4167 10.625 19.125 15.125 14.625C19.625 10.125 24.9167 6.5625 31 3.9375C37.0833 1.3125 43.5833 0 50.5 0C57.4167 0 63.9167 1.3125 70 3.9375C76.0833 6.5625 81.375 10.125 85.875 14.625C90.375 19.125 93.9375 24.4167 96.5625 30.5C99.1875 36.5833 100.5 43.0833 100.5 50C100.5 56.9167 99.1875 63.4167 96.5625 69.5C93.9375 75.5833 90.375 80.875 85.875 85.375C81.375 89.875 76.0833 93.4375 70 96.0625C63.9167 98.6875 57.4167 100 50.5 100Z" fill="#D1D0C7"/>
<rect x="68.5" y="68" width="32" height="32" rx="16" fill="#F4F3F1"/>
<path d="M84.5 88.8889C85.625 88.8889 86.5812 88.5 87.3687 87.7222C88.1562 86.9444 88.55 86 88.55 84.8889C88.55 83.7778 88.1562 82.8333 87.3687 82.0556C86.5812 81.2778 85.625 80.8889 84.5 80.8889C83.375 80.8889 82.4187 81.2778 81.6312 82.0556C80.8438 82.8333 80.45 83.7778 80.45 84.8889C80.45 86 80.8438 86.9444 81.6312 87.7222C82.4187 88.5 83.375 88.8889 84.5 88.8889ZM84.5 87.1111C83.87 87.1111 83.3375 86.8963 82.9025 86.4667C82.4675 86.037 82.25 85.5111 82.25 84.8889C82.25 84.2667 82.4675 83.7407 82.9025 83.3111C83.3375 82.8815 83.87 82.6667 84.5 82.6667C85.13 82.6667 85.6625 82.8815 86.0975 83.3111C86.5325 83.7407 86.75 84.2667 86.75 84.8889C86.75 85.5111 86.5325 86.037 86.0975 86.4667C85.6625 86.8963 85.13 87.1111 84.5 87.1111ZM77.3 92C76.805 92 76.3813 91.8259 76.0288 91.4778C75.6763 91.1296 75.5 90.7111 75.5 90.2222V79.5556C75.5 79.0667 75.6763 78.6481 76.0288 78.3C76.3813 77.9519 76.805 77.7778 77.3 77.7778H80.135L81.8 76H87.2L88.865 77.7778H91.7C92.195 77.7778 92.6187 77.9519 92.9713 78.3C93.3238 78.6481 93.5 79.0667 93.5 79.5556V90.2222C93.5 90.7111 93.3238 91.1296 92.9713 91.4778C92.6187 91.8259 92.195 92 91.7 92H77.3Z" fill="#706D5C"/>
</svg>
