<svg width="20" height="20" viewBox="0 0 20 20" fill="none" xmlns="http://www.w3.org/2000/svg">
<path d="M7.50016 9.16675C7.50016 9.82979 7.76355 10.4657 8.2324 10.9345C8.70124 11.4034 9.33712 11.6667 10.0002 11.6667C10.6632 11.6667 11.2991 11.4034 11.7679 10.9345C12.2368 10.4657 12.5002 9.82979 12.5002 9.16675C12.5002 8.50371 12.2368 7.86782 11.7679 7.39898C11.2991 6.93014 10.6632 6.66675 10.0002 6.66675C9.33712 6.66675 8.70124 6.93014 8.2324 7.39898C7.76355 7.86782 7.50016 8.50371 7.50016 9.16675Z" stroke="#1B8D5A" stroke-width="1.5" stroke-linecap="round" stroke-linejoin="round"/>
<path d="M14.7143 13.8811L11.1785 17.4169C10.866 17.7291 10.4423 17.9045 10.0006 17.9045C9.55885 17.9045 9.13518 17.7291 8.82267 17.4169L5.286 13.8811C4.35368 12.9487 3.71878 11.7608 3.46157 10.4676C3.20437 9.17443 3.33641 7.83401 3.841 6.61585C4.3456 5.3977 5.20008 4.35653 6.2964 3.624C7.39272 2.89147 8.68164 2.50049 10.0002 2.50049C11.3187 2.50049 12.6076 2.89147 13.7039 3.624C14.8003 4.35653 15.6547 5.3977 16.1593 6.61585C16.6639 7.83401 16.796 9.17443 16.5388 10.4676C16.2816 11.7608 15.6466 12.9487 14.7143 13.8811Z" stroke="#1B8D5A" stroke-width="1.5" stroke-linecap="round" stroke-linejoin="round"/>
</svg>
