<svg width="24" height="24" viewBox="0 0 24 24" fill="none" xmlns="http://www.w3.org/2000/svg">
<mask id="path-1-inside-1_134_9837" fill="white">
<path d="M20 14.6667V20H14.6667C13.7314 19.999 12.8128 19.7522 12.0031 19.2841C11.1934 18.8161 10.521 18.1433 10.0533 17.3333C10.5559 17.3297 11.0568 17.2743 11.548 17.168C11.9221 17.6358 12.3967 18.0134 12.9365 18.2728C13.4764 18.5322 14.0677 18.6668 14.6667 18.6667H18.6667V14.6667C18.6665 14.0675 18.5315 13.476 18.2716 12.9362C18.0117 12.3963 17.6336 11.9218 17.1653 11.548C17.2726 11.0569 17.3289 10.556 17.3333 10.0533C18.1433 10.521 18.8161 11.1934 19.2841 12.0031C19.7522 12.8128 19.999 13.7314 20 14.6667ZM16 10C16 8.4087 15.3679 6.88258 14.2426 5.75736C13.1174 4.63214 11.5913 4 10 4C8.4087 4 6.88258 4.63214 5.75736 5.75736C4.63214 6.88258 4 8.4087 4 10L4 16H10C11.5908 15.9982 13.1159 15.3655 14.2407 14.2407C15.3655 13.1159 15.9982 11.5908 16 10V10ZM5.33333 10C5.33333 9.07702 5.60703 8.17477 6.11981 7.40734C6.63259 6.63991 7.36142 6.04177 8.21414 5.68856C9.06687 5.33535 10.0052 5.24294 10.9104 5.423C11.8157 5.60307 12.6472 6.04752 13.2998 6.70017C13.9525 7.35281 14.3969 8.18433 14.577 9.08958C14.7571 9.99482 14.6646 10.9331 14.3114 11.7859C13.9582 12.6386 13.3601 13.3674 12.5927 13.8802C11.8252 14.393 10.923 14.6667 10 14.6667H5.33333V10Z"/>
</mask>
<path d="M20 14.6667V20H14.6667C13.7314 19.999 12.8128 19.7522 12.0031 19.2841C11.1934 18.8161 10.521 18.1433 10.0533 17.3333C10.5559 17.3297 11.0568 17.2743 11.548 17.168C11.9221 17.6358 12.3967 18.0134 12.9365 18.2728C13.4764 18.5322 14.0677 18.6668 14.6667 18.6667H18.6667V14.6667C18.6665 14.0675 18.5315 13.476 18.2716 12.9362C18.0117 12.3963 17.6336 11.9218 17.1653 11.548C17.2726 11.0569 17.3289 10.556 17.3333 10.0533C18.1433 10.521 18.8161 11.1934 19.2841 12.0031C19.7522 12.8128 19.999 13.7314 20 14.6667ZM16 10C16 8.4087 15.3679 6.88258 14.2426 5.75736C13.1174 4.63214 11.5913 4 10 4C8.4087 4 6.88258 4.63214 5.75736 5.75736C4.63214 6.88258 4 8.4087 4 10L4 16H10C11.5908 15.9982 13.1159 15.3655 14.2407 14.2407C15.3655 13.1159 15.9982 11.5908 16 10V10ZM5.33333 10C5.33333 9.07702 5.60703 8.17477 6.11981 7.40734C6.63259 6.63991 7.36142 6.04177 8.21414 5.68856C9.06687 5.33535 10.0052 5.24294 10.9104 5.423C11.8157 5.60307 12.6472 6.04752 13.2998 6.70017C13.9525 7.35281 14.3969 8.18433 14.577 9.08958C14.7571 9.99482 14.6646 10.9331 14.3114 11.7859C13.9582 12.6386 13.3601 13.3674 12.5927 13.8802C11.8252 14.393 10.923 14.6667 10 14.6667H5.33333V10Z" fill="#1B8D5A"/>
<path d="M20 14.6667H41.3333V14.6557L41.3333 14.6448L20 14.6667ZM20 20V41.3333H41.3333V20H20ZM14.6667 20L14.6448 41.3333L14.6557 41.3333H14.6667V20ZM10.0533 17.3333L9.90068 -3.99945L-26.7453 -3.73722L-8.42188 28L10.0533 17.3333ZM11.548 17.168L28.2085 3.84358L19.953 -6.47885L7.03454 -3.68241L11.548 17.168ZM14.6667 18.6667L14.6667 -2.66667L14.6609 -2.66667L14.6667 18.6667ZM18.6667 18.6667V40H40V18.6667H18.6667ZM18.6667 14.6667L40 14.6667L40 14.661L18.6667 14.6667ZM17.1653 11.548L-3.677 6.99738L-6.50477 19.9489L3.85516 28.2198L17.1653 11.548ZM17.3333 10.0533L28 -8.42188L-3.67374 -26.7087L-3.99916 9.86352L17.3333 10.0533ZM10 4L10 -17.3333L10 4ZM4 10L-17.3333 10L4 10ZM4 16H-17.3333L-17.3333 37.3333H4V16ZM10 16V37.3333H10.0118L10.0237 37.3333L10 16ZM5.33333 14.6667H-16V36H5.33333V14.6667ZM-1.33333 14.6667V20H41.3333V14.6667H-1.33333ZM20 -1.33333H14.6667V41.3333H20V-1.33333ZM14.6885 -1.33332C17.4944 -1.33044 20.2501 -0.589776 22.6792 0.814369L1.32695 37.7538C5.37558 40.0941 9.96844 41.3285 14.6448 41.3333L14.6885 -1.33332ZM22.6792 0.814369C25.1084 2.21852 27.1256 4.23677 28.5285 6.66668L-8.42188 28C-6.08371 32.0498 -2.72167 35.4136 1.32695 37.7538L22.6792 0.814369ZM10.206 38.6661C12.1749 38.652 14.1371 38.435 16.0615 38.0184L7.03454 -3.68241C7.9765 -3.88632 8.93696 -3.99256 9.90068 -3.99945L10.206 38.6661ZM-5.11246 30.4924C-2.73915 33.4599 0.271493 35.8553 3.69638 37.5012L22.1767 -0.955606C24.5218 0.171355 26.5834 1.81159 28.2085 3.84358L-5.11246 30.4924ZM3.69638 37.5012C7.12128 39.147 10.8726 40.001 14.6724 40L14.6609 -2.66667C17.2628 -2.66737 19.8315 -2.08258 22.1767 -0.955606L3.69638 37.5012ZM14.6667 40H18.6667V-2.66667H14.6667V40ZM40 18.6667V14.6667H-2.66667V18.6667H40ZM40 14.661C39.999 10.8599 39.1423 7.10765 37.4935 3.68266L-0.950387 22.1897C-2.07939 19.8444 -2.66598 17.2751 -2.66667 14.6723L40 14.661ZM37.4935 3.68266C35.8447 0.257662 33.4461 -2.75223 30.4755 -5.12384L3.85516 28.2198C1.82107 26.5959 0.17862 24.5349 -0.950387 22.1897L37.4935 3.68266ZM38.0077 16.0986C38.4277 14.1746 38.6483 12.2124 38.6658 10.2431L-3.99916 9.86352C-3.99058 8.89959 -3.88262 7.93913 -3.677 6.99738L38.0077 16.0986ZM6.66668 28.5285C4.23677 27.1256 2.21852 25.1084 0.814369 22.6792L37.7538 1.32695C35.4136 -2.72167 32.0498 -6.08371 28 -8.42188L6.66668 28.5285ZM0.814369 22.6792C-0.589776 20.2501 -1.33044 17.4944 -1.33332 14.6885L41.3333 14.6448C41.3285 9.96844 40.0941 5.37558 37.7538 1.32695L0.814369 22.6792ZM37.3333 10C37.3333 2.75075 34.4536 -4.20159 29.3276 -9.32759L-0.842304 20.8423C-3.71786 17.9667 -5.33333 14.0667 -5.33333 10L37.3333 10ZM29.3276 -9.32759C24.2016 -14.4536 17.2493 -17.3333 10 -17.3333L10 25.3333C5.93335 25.3333 2.03325 23.7179 -0.842304 20.8423L29.3276 -9.32759ZM10 -17.3333C2.75075 -17.3333 -4.20159 -14.4536 -9.32759 -9.32759L20.8423 20.8423C17.9667 23.7179 14.0667 25.3333 10 25.3333L10 -17.3333ZM-9.32759 -9.32759C-14.4536 -4.20159 -17.3333 2.75075 -17.3333 10L25.3333 10C25.3333 14.0667 23.7179 17.9667 20.8423 20.8423L-9.32759 -9.32759ZM-17.3333 10V16H25.3333V10L-17.3333 10ZM4 37.3333H10V-5.33333H4V37.3333ZM10.0237 37.3333C17.2642 37.3253 24.2058 34.4454 29.3256 29.3256L-0.844253 -0.844253C2.02589 -3.71439 5.91734 -5.32882 9.97634 -5.33332L10.0237 37.3333ZM29.3256 29.3256C34.4454 24.2058 37.3253 17.2642 37.3333 10.0237L-5.33332 9.97634C-5.32882 5.91734 -3.71439 2.02589 -0.844253 -0.844253L29.3256 29.3256ZM26.6667 10C26.6667 13.2964 25.6892 16.5187 23.8578 19.2595L-11.6182 -4.44483C-14.4751 -0.169148 -16 4.85769 -16 10L26.6667 10ZM23.8578 19.2595C22.0265 22.0003 19.4235 24.1365 16.3781 25.398L0.050231 -14.0209C-4.70065 -12.053 -8.76129 -8.72051 -11.6182 -4.44483L23.8578 19.2595ZM16.3781 25.398C13.3326 26.6595 9.98151 26.9895 6.74849 26.3464L15.0723 -15.5004C10.0288 -16.5036 4.80111 -15.9887 0.050231 -14.0209L16.3781 25.398ZM6.74849 26.3464C3.51548 25.7033 0.545762 24.116 -1.78511 21.7851L28.3848 -8.38478C24.7486 -12.0209 20.1159 -14.4972 15.0723 -15.5004L6.74849 26.3464ZM-1.78511 21.7851C-4.11599 19.4542 -5.70334 16.4845 -6.34642 13.2515L35.5004 4.92765C34.4972 -0.115854 32.0209 -4.74861 28.3848 -8.38478L-1.78511 21.7851ZM-6.34642 13.2515C-6.98951 10.0185 -6.65945 6.66738 -5.39799 3.62194L34.0209 19.9498C35.9887 15.1989 36.5036 9.97116 35.5004 4.92765L-6.34642 13.2515ZM-5.39799 3.62194C-4.13653 0.576508 -2.00032 -2.02647 0.740496 -3.85783L24.4448 31.6182C28.7205 28.7613 32.053 24.7006 34.0209 19.9498L-5.39799 3.62194ZM0.740496 -3.85783C3.48132 -5.68919 6.70365 -6.66667 10 -6.66667V36C15.1423 36 20.1691 34.4751 24.4448 31.6182L0.740496 -3.85783ZM10 -6.66667H5.33333V36H10V-6.66667ZM26.6667 14.6667V10H-16V14.6667H26.6667Z" fill="#1B8D5A" mask="url(#path-1-inside-1_134_9837)"/>
</svg>
