<svg width="24" height="24" viewBox="0 0 24 24" fill="none" xmlns="http://www.w3.org/2000/svg">
<path fill-rule="evenodd" clip-rule="evenodd" d="M8.25 5C7.65326 5 7.08097 5.22532 6.65901 5.6264C6.23705 6.02747 6 6.57145 6 7.13865V17.9303C5.99993 18.1176 6.05163 18.3017 6.14993 18.464C6.24822 18.6264 6.38966 18.7613 6.56009 18.8554C6.73051 18.9495 6.92394 18.9993 7.12101 19C7.31808 19.0007 7.51188 18.9521 7.683 18.8592L11.628 16.7163C11.7413 16.6547 11.8695 16.6224 12 16.6224C12.1305 16.6224 12.2587 16.6547 12.372 16.7163L16.317 18.8592C16.4881 18.9521 16.6819 19.0007 16.879 19C17.0761 18.9993 17.2695 18.9495 17.4399 18.8554C17.6103 18.7613 17.7518 18.6264 17.8501 18.464C17.9484 18.3017 18.0001 18.1176 18 17.9303V7.13865C18 6.57145 17.7629 6.02747 17.341 5.6264C16.919 5.22532 16.3467 5 15.75 5H8.25Z" fill="#D1D0C7"/>
</svg>
