<svg width="24" height="24" viewBox="0 0 24 24" fill="none" xmlns="http://www.w3.org/2000/svg">
<path d="M11 12C11 12.1989 11.079 12.3897 11.2197 12.5303C11.3603 12.671 11.5511 12.75 11.75 12.75C11.9489 12.75 12.1397 12.671 12.2803 12.5303C12.421 12.3897 12.5 12.1989 12.5 12C12.5 11.8011 12.421 11.6103 12.2803 11.4697C12.1397 11.329 11.9489 11.25 11.75 11.25C11.5511 11.25 11.3603 11.329 11.2197 11.4697C11.079 11.6103 11 11.8011 11 12Z" stroke="#706D5C" stroke-width="1.5" stroke-linecap="round" stroke-linejoin="round"/>
<path d="M11 17.25C11 17.4489 11.079 17.6397 11.2197 17.7803C11.3603 17.921 11.5511 18 11.75 18C11.9489 18 12.1397 17.921 12.2803 17.7803C12.421 17.6397 12.5 17.4489 12.5 17.25C12.5 17.0511 12.421 16.8603 12.2803 16.7197C12.1397 16.579 11.9489 16.5 11.75 16.5C11.5511 16.5 11.3603 16.579 11.2197 16.7197C11.079 16.8603 11 17.0511 11 17.25Z" stroke="#706D5C" stroke-width="1.5" stroke-linecap="round" stroke-linejoin="round"/>
<path d="M11 6.75C11 6.94891 11.079 7.13968 11.2197 7.28033C11.3603 7.42098 11.5511 7.5 11.75 7.5C11.9489 7.5 12.1397 7.42098 12.2803 7.28033C12.421 7.13968 12.5 6.94891 12.5 6.75C12.5 6.55109 12.421 6.36032 12.2803 6.21967C12.1397 6.07902 11.9489 6 11.75 6C11.5511 6 11.3603 6.07902 11.2197 6.21967C11.079 6.36032 11 6.55109 11 6.75Z" stroke="#706D5C" stroke-width="1.5" stroke-linecap="round" stroke-linejoin="round"/>
</svg>
