<svg width="24" height="24" viewBox="0 0 24 24" fill="none" xmlns="http://www.w3.org/2000/svg">
<path d="M12.5 4.82861L16.5 8.82861M15 17.3286H21M18 14.3286V20.3286M3 18.3284H7L17.5 7.82843C17.7626 7.56578 17.971 7.25398 18.1131 6.91082C18.2553 6.56766 18.3284 6.19986 18.3284 5.82843C18.3284 5.45699 18.2553 5.0892 18.1131 4.74604C17.971 4.40287 17.7626 4.09107 17.5 3.82843C17.2374 3.56578 16.9256 3.35744 16.5824 3.2153C16.2392 3.07316 15.8714 3 15.5 3C15.1286 3 14.7608 3.07316 14.4176 3.2153C14.0744 3.35744 13.7626 3.56578 13.5 3.82843L3 14.3284V18.3284Z" stroke="white" stroke-width="1.5" stroke-linecap="round" stroke-linejoin="round"/>
</svg>
