<svg width="24" height="24" viewBox="0 0 24 24" fill="none" xmlns="http://www.w3.org/2000/svg">
<path fill-rule="evenodd" clip-rule="evenodd" d="M13.5372 5.56977C14.1808 5.20749 14.9148 5.01095 15.6652 5C16.8614 5.04876 17.9884 5.53975 18.8001 6.36569C19.6117 7.19164 20.0419 8.2854 19.9968 9.40802C19.9968 13.6441 12.6957 18.5379 12.3852 18.7443L12 19L11.6148 18.7443C11.3043 18.5367 4.00323 13.6441 4.00323 9.40802C3.95808 8.2854 4.38831 7.19164 5.19993 6.36569C6.01155 5.53975 7.13859 5.04876 8.33481 5C9.08521 5.01095 9.81924 5.20749 10.4628 5.56977C11.1063 5.93206 11.6366 6.44725 12 7.06333C12.3634 6.44725 12.8937 5.93206 13.5372 5.56977Z" fill="#D1D0C7"/>
</svg>
