<svg width="24" height="24" viewBox="0 0 24 24" fill="none" xmlns="http://www.w3.org/2000/svg">
<path d="M12.0002 5.77779C15.2177 5.77779 17.8975 7.66701 19.999 11.342L20.164 11.6368L20.1977 11.7146L20.2202 11.7791L20.2307 11.8219L20.2412 11.8857L20.2495 11.9635V12.049L20.239 12.1353C20.2341 12.1642 20.2276 12.1928 20.2195 12.2209L20.1902 12.3049L20.1632 12.3632L20.1512 12.3866C18.0782 16.1479 15.4262 18.1266 12.235 18.2191L12.0002 18.2222C8.70325 18.2222 5.9725 16.2397 3.84925 12.3858C3.78453 12.2683 3.75049 12.1353 3.75049 12C3.75049 11.8647 3.78453 11.7317 3.84925 11.6142C5.9725 7.76034 8.70325 5.77779 12.0002 5.77779ZM12.0002 9.66667C11.4035 9.66667 10.8312 9.91251 10.4093 10.3501C9.9873 10.7877 9.75025 11.3812 9.75025 12C9.75025 12.6188 9.9873 13.2123 10.4093 13.6499C10.8312 14.0875 11.4035 14.3333 12.0002 14.3333C12.597 14.3333 13.1693 14.0875 13.5912 13.6499C14.0132 13.2123 14.2502 12.6188 14.2502 12C14.2502 11.3812 14.0132 10.7877 13.5912 10.3501C13.1693 9.91251 12.597 9.66667 12.0002 9.66667Z" fill="#D1D0C7"/>
</svg>
